<svg width="156" height="40" viewBox="0 0 156 40" fill="none" xmlns="http://www.w3.org/2000/svg">
<path d="M15.59 22.37C15.7982 23.2511 15.8044 24.1678 15.608 25.0516C15.4116 25.9354 15.0177 26.7633 14.4559 27.4732C13.8941 28.1832 13.1789 28.7568 12.364 29.1511C11.549 29.5454 10.6553 29.7501 9.75 29.75V24.95M15.59 22.37C17.4999 20.9788 19.0536 19.1555 20.1242 17.0491C21.1947 14.9427 21.7519 12.6129 21.75 10.25C19.3873 10.2483 17.0577 10.8055 14.9515 11.8761C12.8452 12.9467 11.0221 14.5003 9.631 16.41M15.59 22.37C13.8519 23.6413 11.8603 24.5214 9.75 24.95M9.75 24.95C9.647 24.971 9.543 24.991 9.439 25.01C8.53179 24.2906 7.71038 23.4692 6.991 22.562C7.00989 22.4578 7.02889 22.3538 7.05 22.25M9.631 16.41C8.74986 16.2016 7.83298 16.1953 6.94907 16.3916C6.06516 16.588 5.23714 16.9818 4.52707 17.5436C3.817 18.1054 3.2433 18.8207 2.84895 19.6357C2.4546 20.4508 2.24984 21.3446 2.25 22.25H7.05M9.631 16.41C8.35988 18.1478 7.47875 20.14 7.05 22.25M4.811 24.64C4.15318 25.1292 3.64173 25.789 3.33202 26.548C3.02232 27.307 2.92618 28.1363 3.054 28.946C3.86383 29.0737 4.69316 28.9774 5.45218 28.6675C6.21119 28.3577 6.87095 27.846 7.36 27.188M16.5 17C16.5 17.3978 16.342 17.7794 16.0607 18.0607C15.7794 18.342 15.3978 18.5 15 18.5C14.6022 18.5 14.2206 18.342 13.9393 18.0607C13.658 17.7794 13.5 17.3978 13.5 17C13.5 16.6022 13.658 16.2206 13.9393 15.9393C14.2206 15.658 14.6022 15.5 15 15.5C15.3978 15.5 15.7794 15.658 16.0607 15.9393C16.342 16.2206 16.5 16.6022 16.5 17Z" stroke="#0F172A" stroke-width="1.5" stroke-linecap="round" stroke-linejoin="round"/>
<path d="M30.208 28.5V11.46H32.272V27.54L31.24 26.484H40.792V28.5H30.208ZM45.7459 28.788C44.4339 28.788 43.3859 28.484 42.6019 27.876C41.8339 27.268 41.4499 26.42 41.4499 25.332C41.4499 24.244 41.7699 23.388 42.4099 22.764C43.0499 22.14 44.0659 21.7 45.4579 21.444L49.9699 20.604C49.9699 19.532 49.7139 18.732 49.2019 18.204C48.7059 17.676 47.9539 17.412 46.9459 17.412C46.0659 17.412 45.3699 17.612 44.8579 18.012C44.3459 18.396 43.9939 18.956 43.8019 19.692L41.6659 19.524C41.9059 18.324 42.4819 17.356 43.3939 16.62C44.3219 15.868 45.5059 15.492 46.9459 15.492C48.5779 15.492 49.8259 15.956 50.6899 16.884C51.5539 17.796 51.9859 19.06 51.9859 20.676V25.932C51.9859 26.22 52.0339 26.428 52.1299 26.556C52.2419 26.668 52.4179 26.724 52.6579 26.724H53.1619V28.5C53.0979 28.516 52.9939 28.524 52.8499 28.524C52.7059 28.54 52.5539 28.548 52.3939 28.548C51.8179 28.548 51.3459 28.46 50.9779 28.284C50.6259 28.092 50.3699 27.804 50.2099 27.42C50.0499 27.02 49.9699 26.5 49.9699 25.86L50.2099 25.908C50.0979 26.452 49.8259 26.948 49.3939 27.396C48.9619 27.828 48.4259 28.172 47.7859 28.428C47.1459 28.668 46.4659 28.788 45.7459 28.788ZM45.9379 27.012C46.7859 27.012 47.5059 26.852 48.0979 26.532C48.7059 26.196 49.1699 25.748 49.4899 25.188C49.8099 24.612 49.9699 23.972 49.9699 23.268V22.356L45.8419 23.124C44.9779 23.284 44.3779 23.532 44.0419 23.868C43.7219 24.188 43.5619 24.612 43.5619 25.14C43.5619 25.732 43.7699 26.196 44.1859 26.532C44.6179 26.852 45.2019 27.012 45.9379 27.012ZM58.271 28.788C57.007 28.788 55.991 28.364 55.223 27.516C54.471 26.652 54.095 25.468 54.095 23.964V15.78H56.111V23.412C56.111 24.644 56.327 25.556 56.759 26.148C57.207 26.724 57.887 27.012 58.799 27.012C59.807 27.012 60.599 26.692 61.175 26.052C61.751 25.396 62.039 24.5 62.039 23.364V15.78H64.055V28.5H62.135V25.356L62.447 25.524C62.191 26.564 61.703 27.372 60.983 27.948C60.263 28.508 59.359 28.788 58.271 28.788ZM66.2997 28.5V15.78H68.1477L68.2197 19.02L67.9797 18.804C68.1397 18.052 68.4197 17.436 68.8197 16.956C69.2197 16.46 69.6997 16.092 70.2597 15.852C70.8357 15.612 71.4517 15.492 72.1077 15.492C73.0837 15.492 73.8837 15.708 74.5077 16.14C75.1477 16.572 75.6197 17.156 75.9237 17.892C76.2437 18.612 76.4037 19.42 76.4037 20.316V28.5H74.3877V20.892C74.3877 20.108 74.2917 19.452 74.0997 18.924C73.9237 18.38 73.6357 17.972 73.2357 17.7C72.8357 17.412 72.3157 17.268 71.6757 17.268C70.6997 17.268 69.8917 17.58 69.2517 18.204C68.6277 18.812 68.3157 19.708 68.3157 20.892V28.5H66.2997ZM83.3334 28.788C82.1494 28.788 81.1174 28.516 80.2374 27.972C79.3734 27.428 78.7014 26.66 78.2214 25.668C77.7414 24.66 77.5014 23.484 77.5014 22.14C77.5014 20.796 77.7414 19.628 78.2214 18.636C78.7014 17.644 79.3734 16.876 80.2374 16.332C81.1174 15.772 82.1494 15.492 83.3334 15.492C84.3094 15.492 85.1734 15.668 85.9254 16.02C86.6934 16.356 87.3174 16.852 87.7974 17.508C88.2774 18.164 88.5894 18.964 88.7334 19.908L86.6214 20.052C86.4774 19.204 86.1094 18.556 85.5174 18.108C84.9254 17.644 84.1974 17.412 83.3334 17.412C82.1654 17.412 81.2534 17.836 80.5974 18.684C79.9414 19.516 79.6134 20.668 79.6134 22.14C79.6134 23.612 79.9414 24.772 80.5974 25.62C81.2534 26.452 82.1654 26.868 83.3334 26.868C84.1974 26.868 84.9254 26.628 85.5174 26.148C86.1094 25.668 86.4774 24.948 86.6214 23.988L88.7334 24.132C88.5894 25.076 88.2774 25.9 87.7974 26.604C87.3174 27.292 86.6934 27.828 85.9254 28.212C85.1734 28.596 84.3094 28.788 83.3334 28.788ZM89.4669 28.5V11.46H91.4829V18.588L91.2429 18.54C91.4029 17.836 91.6749 17.26 92.0589 16.812C92.4429 16.364 92.9149 16.036 93.4749 15.828C94.0349 15.604 94.6509 15.492 95.3229 15.492C96.2349 15.492 97.0029 15.7 97.6269 16.116C98.2669 16.516 98.7469 17.084 99.0669 17.82C99.4029 18.54 99.5709 19.372 99.5709 20.316V28.5H97.5549V20.892C97.5549 19.66 97.3309 18.748 96.8829 18.156C96.4509 17.564 95.7869 17.268 94.8909 17.268C93.8669 17.268 93.0429 17.58 92.4189 18.204C91.7949 18.828 91.4829 19.732 91.4829 20.916V28.5H89.4669ZM102.1 28.5V11.46H104.164V27.54L103.132 26.484H112.684V28.5H102.1ZM117.638 28.788C116.326 28.788 115.278 28.484 114.494 27.876C113.726 27.268 113.342 26.42 113.342 25.332C113.342 24.244 113.662 23.388 114.302 22.764C114.942 22.14 115.958 21.7 117.35 21.444L121.862 20.604C121.862 19.532 121.606 18.732 121.094 18.204C120.598 17.676 119.846 17.412 118.838 17.412C117.958 17.412 117.262 17.612 116.75 18.012C116.238 18.396 115.886 18.956 115.694 19.692L113.558 19.524C113.798 18.324 114.374 17.356 115.286 16.62C116.214 15.868 117.398 15.492 118.838 15.492C120.47 15.492 121.718 15.956 122.582 16.884C123.446 17.796 123.878 19.06 123.878 20.676V25.932C123.878 26.22 123.926 26.428 124.022 26.556C124.134 26.668 124.31 26.724 124.55 26.724H125.054V28.5C124.99 28.516 124.886 28.524 124.742 28.524C124.598 28.54 124.446 28.548 124.286 28.548C123.71 28.548 123.238 28.46 122.87 28.284C122.518 28.092 122.262 27.804 122.102 27.42C121.942 27.02 121.862 26.5 121.862 25.86L122.102 25.908C121.99 26.452 121.718 26.948 121.286 27.396C120.854 27.828 120.318 28.172 119.678 28.428C119.038 28.668 118.358 28.788 117.638 28.788ZM117.83 27.012C118.678 27.012 119.398 26.852 119.99 26.532C120.598 26.196 121.062 25.748 121.382 25.188C121.702 24.612 121.862 23.972 121.862 23.268V22.356L117.734 23.124C116.87 23.284 116.27 23.532 115.934 23.868C115.614 24.188 115.454 24.612 115.454 25.14C115.454 25.732 115.662 26.196 116.078 26.532C116.51 26.852 117.094 27.012 117.83 27.012ZM126.164 32.1V30.324H127.628C128.076 30.324 128.404 30.252 128.612 30.108C128.836 29.98 129.004 29.764 129.116 29.46L129.572 28.26H128.876L124.22 15.78H126.428L130.22 26.388L133.844 15.78H136.052L130.892 30.108C130.652 30.796 130.292 31.3 129.812 31.62C129.332 31.94 128.668 32.1 127.82 32.1H126.164ZM141.333 28.788C140.133 28.788 139.093 28.516 138.213 27.972C137.349 27.428 136.677 26.66 136.197 25.668C135.733 24.66 135.501 23.484 135.501 22.14C135.501 20.796 135.733 19.628 136.197 18.636C136.677 17.644 137.341 16.876 138.189 16.332C139.053 15.772 140.069 15.492 141.237 15.492C142.341 15.492 143.317 15.756 144.165 16.284C145.013 16.796 145.669 17.548 146.133 18.54C146.613 19.532 146.853 20.74 146.853 22.164V22.764H137.613C137.693 24.124 138.053 25.148 138.693 25.836C139.349 26.524 140.229 26.868 141.333 26.868C142.165 26.868 142.845 26.676 143.373 26.292C143.917 25.892 144.293 25.372 144.501 24.732L146.661 24.9C146.325 26.036 145.685 26.972 144.741 27.708C143.813 28.428 142.677 28.788 141.333 28.788ZM137.613 20.988H144.645C144.549 19.756 144.189 18.852 143.565 18.276C142.957 17.7 142.181 17.412 141.237 17.412C140.261 17.412 139.453 17.716 138.813 18.324C138.189 18.916 137.789 19.804 137.613 20.988ZM148.193 28.5V15.78H149.969L150.065 18.996L149.873 18.924C150.033 17.836 150.377 17.044 150.905 16.548C151.449 16.036 152.169 15.78 153.065 15.78H154.313V17.7H153.089C152.449 17.7 151.913 17.82 151.481 18.06C151.065 18.284 150.745 18.628 150.521 19.092C150.313 19.54 150.209 20.116 150.209 20.82V28.5H148.193Z" fill="#0F172A"/>
</svg>
