<svg width="167" height="36" viewBox="0 0 167 36" fill="none" xmlns="http://www.w3.org/2000/svg">
<rect width="33" height="36" rx="4" fill="#0F172A"/>
<path d="M7.816 26C7.576 26 7.456 25.912 7.456 25.736C7.456 25.592 7.56 25.496 7.768 25.448L8.32 25.352C8.656 25.288 8.872 25.2 8.968 25.088C9.08 24.976 9.136 24.752 9.136 24.416V10.304C9.136 9.968 9.08 9.744 8.968 9.632C8.872 9.52 8.656 9.432 8.32 9.368L7.768 9.272C7.56 9.224 7.456 9.128 7.456 8.984C7.456 8.808 7.576 8.72 7.816 8.72H12.208C12.448 8.72 12.568 8.816 12.568 9.008C12.568 9.152 12.48 9.24 12.304 9.272L11.656 9.368C11.32 9.416 11.096 9.504 10.984 9.632C10.888 9.76 10.84 9.992 10.84 10.328V23.768C10.84 24.344 11 24.76 11.32 25.016C11.656 25.272 12.072 25.4 12.568 25.4C12.936 25.4 13.312 25.328 13.696 25.184C14.096 25.024 14.456 24.736 14.776 24.32C15.096 23.888 15.336 23.264 15.496 22.448L15.808 20.84C15.856 20.632 15.976 20.528 16.168 20.528C16.392 20.528 16.488 20.664 16.456 20.936L16.168 25.448C16.136 25.816 15.936 26 15.568 26H7.816Z" fill="white"/>
<path d="M25.184 9C25.424 9 25.544 9.088 25.544 9.264C25.544 9.408 25.44 9.504 25.232 9.552L24.68 9.648C24.344 9.712 24.128 9.8 24.032 9.912C23.92 10.024 23.864 10.248 23.864 10.584L23.864 24.696C23.864 25.032 23.92 25.256 24.032 25.368C24.128 25.48 24.344 25.568 24.68 25.632L25.232 25.728C25.44 25.776 25.544 25.872 25.544 26.016C25.544 26.192 25.424 26.28 25.184 26.28H20.792C20.552 26.28 20.432 26.184 20.432 25.992C20.432 25.848 20.52 25.76 20.696 25.728L21.344 25.632C21.68 25.584 21.904 25.496 22.016 25.368C22.112 25.24 22.16 25.008 22.16 24.672L22.16 11.232C22.16 10.656 22 10.24 21.68 9.984C21.344 9.728 20.928 9.6 20.432 9.6C20.064 9.6 19.688 9.672 19.304 9.816C18.904 9.976 18.544 10.264 18.224 10.68C17.904 11.112 17.664 11.736 17.504 12.552L17.192 14.16C17.144 14.368 17.024 14.472 16.832 14.472C16.608 14.472 16.512 14.336 16.544 14.064L16.832 9.552C16.864 9.184 17.064 9 17.432 9H25.184Z" fill="white"/>
<path d="M39.208 26V8.96H41.272V25.04L40.24 23.984H49.792V26H39.208ZM54.7459 26.288C53.4339 26.288 52.3859 25.984 51.6019 25.376C50.8339 24.768 50.4499 23.92 50.4499 22.832C50.4499 21.744 50.7699 20.888 51.4099 20.264C52.0499 19.64 53.0659 19.2 54.4579 18.944L58.9699 18.104C58.9699 17.032 58.7139 16.232 58.2019 15.704C57.7059 15.176 56.9539 14.912 55.9459 14.912C55.0659 14.912 54.3699 15.112 53.8579 15.512C53.3459 15.896 52.9939 16.456 52.8019 17.192L50.6659 17.024C50.9059 15.824 51.4819 14.856 52.3939 14.12C53.3219 13.368 54.5059 12.992 55.9459 12.992C57.5779 12.992 58.8259 13.456 59.6899 14.384C60.5539 15.296 60.9859 16.56 60.9859 18.176V23.432C60.9859 23.72 61.0339 23.928 61.1299 24.056C61.2419 24.168 61.4179 24.224 61.6579 24.224H62.1619V26C62.0979 26.016 61.9939 26.024 61.8499 26.024C61.7059 26.04 61.5539 26.048 61.3939 26.048C60.8179 26.048 60.3459 25.96 59.9779 25.784C59.6259 25.592 59.3699 25.304 59.2099 24.92C59.0499 24.52 58.9699 24 58.9699 23.36L59.2099 23.408C59.0979 23.952 58.8259 24.448 58.3939 24.896C57.9619 25.328 57.4259 25.672 56.7859 25.928C56.1459 26.168 55.4659 26.288 54.7459 26.288ZM54.9379 24.512C55.7859 24.512 56.5059 24.352 57.0979 24.032C57.7059 23.696 58.1699 23.248 58.4899 22.688C58.8099 22.112 58.9699 21.472 58.9699 20.768V19.856L54.8419 20.624C53.9779 20.784 53.3779 21.032 53.0419 21.368C52.7219 21.688 52.5619 22.112 52.5619 22.64C52.5619 23.232 52.7699 23.696 53.1859 24.032C53.6179 24.352 54.2019 24.512 54.9379 24.512ZM67.271 26.288C66.007 26.288 64.991 25.864 64.223 25.016C63.471 24.152 63.095 22.968 63.095 21.464V13.28H65.111V20.912C65.111 22.144 65.327 23.056 65.759 23.648C66.207 24.224 66.887 24.512 67.799 24.512C68.807 24.512 69.599 24.192 70.175 23.552C70.751 22.896 71.039 22 71.039 20.864V13.28H73.055V26H71.135V22.856L71.447 23.024C71.191 24.064 70.703 24.872 69.983 25.448C69.263 26.008 68.359 26.288 67.271 26.288ZM75.2997 26V13.28H77.1477L77.2197 16.52L76.9797 16.304C77.1397 15.552 77.4197 14.936 77.8197 14.456C78.2197 13.96 78.6997 13.592 79.2597 13.352C79.8357 13.112 80.4517 12.992 81.1077 12.992C82.0837 12.992 82.8837 13.208 83.5077 13.64C84.1477 14.072 84.6197 14.656 84.9237 15.392C85.2437 16.112 85.4037 16.92 85.4037 17.816V26H83.3877V18.392C83.3877 17.608 83.2917 16.952 83.0997 16.424C82.9237 15.88 82.6357 15.472 82.2357 15.2C81.8357 14.912 81.3157 14.768 80.6757 14.768C79.6997 14.768 78.8917 15.08 78.2517 15.704C77.6277 16.312 77.3157 17.208 77.3157 18.392V26H75.2997ZM92.3334 26.288C91.1494 26.288 90.1174 26.016 89.2374 25.472C88.3734 24.928 87.7014 24.16 87.2214 23.168C86.7414 22.16 86.5014 20.984 86.5014 19.64C86.5014 18.296 86.7414 17.128 87.2214 16.136C87.7014 15.144 88.3734 14.376 89.2374 13.832C90.1174 13.272 91.1494 12.992 92.3334 12.992C93.3094 12.992 94.1734 13.168 94.9254 13.52C95.6934 13.856 96.3174 14.352 96.7974 15.008C97.2774 15.664 97.5894 16.464 97.7334 17.408L95.6214 17.552C95.4774 16.704 95.1094 16.056 94.5174 15.608C93.9254 15.144 93.1974 14.912 92.3334 14.912C91.1654 14.912 90.2534 15.336 89.5974 16.184C88.9414 17.016 88.6134 18.168 88.6134 19.64C88.6134 21.112 88.9414 22.272 89.5974 23.12C90.2534 23.952 91.1654 24.368 92.3334 24.368C93.1974 24.368 93.9254 24.128 94.5174 23.648C95.1094 23.168 95.4774 22.448 95.6214 21.488L97.7334 21.632C97.5894 22.576 97.2774 23.4 96.7974 24.104C96.3174 24.792 95.6934 25.328 94.9254 25.712C94.1734 26.096 93.3094 26.288 92.3334 26.288ZM98.4669 26V8.96H100.483V16.088L100.243 16.04C100.403 15.336 100.675 14.76 101.059 14.312C101.443 13.864 101.915 13.536 102.475 13.328C103.035 13.104 103.651 12.992 104.323 12.992C105.235 12.992 106.003 13.2 106.627 13.616C107.267 14.016 107.747 14.584 108.067 15.32C108.403 16.04 108.571 16.872 108.571 17.816V26H106.555V18.392C106.555 17.16 106.331 16.248 105.883 15.656C105.451 15.064 104.787 14.768 103.891 14.768C102.867 14.768 102.043 15.08 101.419 15.704C100.795 16.328 100.483 17.232 100.483 18.416V26H98.4669ZM111.1 26V8.96H113.164V25.04L112.132 23.984H121.684V26H111.1ZM126.638 26.288C125.326 26.288 124.278 25.984 123.494 25.376C122.726 24.768 122.342 23.92 122.342 22.832C122.342 21.744 122.662 20.888 123.302 20.264C123.942 19.64 124.958 19.2 126.35 18.944L130.862 18.104C130.862 17.032 130.606 16.232 130.094 15.704C129.598 15.176 128.846 14.912 127.838 14.912C126.958 14.912 126.262 15.112 125.75 15.512C125.238 15.896 124.886 16.456 124.694 17.192L122.558 17.024C122.798 15.824 123.374 14.856 124.286 14.12C125.214 13.368 126.398 12.992 127.838 12.992C129.47 12.992 130.718 13.456 131.582 14.384C132.446 15.296 132.878 16.56 132.878 18.176V23.432C132.878 23.72 132.926 23.928 133.022 24.056C133.134 24.168 133.31 24.224 133.55 24.224H134.054V26C133.99 26.016 133.886 26.024 133.742 26.024C133.598 26.04 133.446 26.048 133.286 26.048C132.71 26.048 132.238 25.96 131.87 25.784C131.518 25.592 131.262 25.304 131.102 24.92C130.942 24.52 130.862 24 130.862 23.36L131.102 23.408C130.99 23.952 130.718 24.448 130.286 24.896C129.854 25.328 129.318 25.672 128.678 25.928C128.038 26.168 127.358 26.288 126.638 26.288ZM126.83 24.512C127.678 24.512 128.398 24.352 128.99 24.032C129.598 23.696 130.062 23.248 130.382 22.688C130.702 22.112 130.862 21.472 130.862 20.768V19.856L126.734 20.624C125.87 20.784 125.27 21.032 124.934 21.368C124.614 21.688 124.454 22.112 124.454 22.64C124.454 23.232 124.662 23.696 125.078 24.032C125.51 24.352 126.094 24.512 126.83 24.512ZM135.164 29.6V27.824H136.628C137.076 27.824 137.404 27.752 137.612 27.608C137.836 27.48 138.004 27.264 138.116 26.96L138.572 25.76H137.876L133.22 13.28H135.428L139.22 23.888L142.844 13.28H145.052L139.892 27.608C139.652 28.296 139.292 28.8 138.812 29.12C138.332 29.44 137.668 29.6 136.82 29.6H135.164ZM150.333 26.288C149.133 26.288 148.093 26.016 147.213 25.472C146.349 24.928 145.677 24.16 145.197 23.168C144.733 22.16 144.501 20.984 144.501 19.64C144.501 18.296 144.733 17.128 145.197 16.136C145.677 15.144 146.341 14.376 147.189 13.832C148.053 13.272 149.069 12.992 150.237 12.992C151.341 12.992 152.317 13.256 153.165 13.784C154.013 14.296 154.669 15.048 155.133 16.04C155.613 17.032 155.853 18.24 155.853 19.664V20.264H146.613C146.693 21.624 147.053 22.648 147.693 23.336C148.349 24.024 149.229 24.368 150.333 24.368C151.165 24.368 151.845 24.176 152.373 23.792C152.917 23.392 153.293 22.872 153.501 22.232L155.661 22.4C155.325 23.536 154.685 24.472 153.741 25.208C152.813 25.928 151.677 26.288 150.333 26.288ZM146.613 18.488H153.645C153.549 17.256 153.189 16.352 152.565 15.776C151.957 15.2 151.181 14.912 150.237 14.912C149.261 14.912 148.453 15.216 147.813 15.824C147.189 16.416 146.789 17.304 146.613 18.488ZM157.193 26V13.28H158.969L159.065 16.496L158.873 16.424C159.033 15.336 159.377 14.544 159.905 14.048C160.449 13.536 161.169 13.28 162.065 13.28H163.313V15.2H162.089C161.449 15.2 160.913 15.32 160.481 15.56C160.065 15.784 159.745 16.128 159.521 16.592C159.313 17.04 159.209 17.616 159.209 18.32V26H157.193ZM162.536 26V23.288H165.248V26H162.536Z" fill="#0F172A"/>
</svg>
